<?xml version="1.0" standalone="no"?>
<!DOCTYPE svg PUBLIC "-//W3C//DTD SVG 20010904//EN"
 "http://www.w3.org/TR/2001/REC-SVG-20010904/DTD/svg10.dtd">
<svg version="1.0" xmlns="http://www.w3.org/2000/svg"
 width="500.000000pt" height="500.000000pt" viewBox="0 0 500.000000 500.000000"
 preserveAspectRatio="xMidYMid meet">

<g transform="translate(0.000000,500.000000) scale(0.100000,-0.100000)"
fill="#000000" stroke="none">
<path d="M2280 4929 c-199 -17 -437 -68 -617 -134 -143 -53 -402 -183 -523
-263 -371 -247 -652 -567 -855 -970 -281 -561 -331 -1246 -134 -1852 196 -604
630 -1124 1181 -1414 340 -180 661 -269 1051 -292 l117 -7 0 522 c0 514 0 521
-20 521 -13 0 -20 7 -20 20 0 13 7 20 20 20 31 0 28 53 -4 68 -36 16 -51 71
-32 115 8 19 24 38 35 42 21 6 21 11 21 288 0 269 7 1282 10 1340 1 39 1 121
0 160 -1 17 -4 440 -6 940 l-4 907 -58 -1 c-31 -1 -104 -6 -162 -10z m-171
-1370 c199 -40 331 -184 356 -391 l7 -58 -170 0 -170 0 -23 47 c-33 66 -77 93
-149 93 -63 0 -106 -22 -144 -73 -32 -44 -34 -159 -4 -211 30 -51 87 -81 153
-80 74 1 112 25 142 90 l24 54 170 0 c195 0 180 11 154 -113 -36 -172 -156
-293 -335 -338 -71 -18 -249 -18 -320 0 -81 20 -186 78 -243 135 -123 123
-170 349 -108 527 28 84 48 117 104 176 129 136 328 187 556 142z m-779 -406
c189 -523 200 -555 200 -559 0 -2 -85 -4 -190 -4 l-189 0 -16 55 -16 55 -174
0 -174 0 -17 -55 -18 -55 -188 0 c-103 0 -188 3 -188 8 0 4 70 201 156 437 86
237 163 449 171 473 l15 42 242 0 242 0 144 -397z m814 -782 c197 -69 306
-224 306 -435 -1 -296 -208 -479 -525 -463 -183 9 -315 75 -394 197 -57 88
-75 165 -69 299 l4 111 -138 0 -138 0 0 -290 0 -290 -170 0 -170 0 0 290 0
289 -147 3 -148 3 -3 143 -3 142 471 0 470 0 0 -117 0 -118 30 48 c64 102 169
174 294 203 85 19 253 12 330 -15z m-579 -1061 c39 -15 58 -70 53 -153 -3 -61
-7 -72 -31 -93 -69 -59 -138 -1 -136 113 0 66 19 115 49 130 30 15 32 16 65 3z
m427 -17 c22 -20 23 -61 1 -85 -15 -16 -15 -20 0 -35 8 -10 19 -30 22 -45 6
-22 1 -33 -23 -58 -41 -40 -83 -40 -123 -1 -34 35 -36 59 -8 95 20 25 20 28 5
45 -19 20 -20 44 -5 72 21 41 92 47 131 12z m191 -4 c35 -42 21 -87 -51 -161
l-46 -48 62 0 c48 0 62 -3 62 -15 0 -12 -16 -15 -80 -15 -71 0 -80 2 -80 18 0
10 13 31 30 47 51 49 82 101 78 132 -2 23 -8 29 -35 31 -18 2 -42 -2 -53 -8
-19 -10 -21 -9 -18 11 6 43 97 48 131 8z m-423 -93 c0 -110 1 -115 22 -118 12
-2 23 -9 26 -15 3 -10 -15 -13 -68 -13 -53 0 -71 3 -68 13 3 6 14 13 26 15 21
3 22 9 22 88 0 84 0 84 -26 84 -30 0 -28 23 2 29 10 2 23 9 27 17 4 8 15 14
22 14 12 0 15 -21 15 -114z m650 94 c0 -11 -25 -70 -55 -130 -43 -85 -60 -110
-75 -110 -18 0 -14 12 35 110 30 60 55 112 55 115 0 3 -29 5 -65 5 -51 0 -65
3 -65 15 0 12 16 15 85 15 79 0 85 -2 85 -20z"/>
<path d="M1830 3525 c-229 -46 -370 -219 -370 -455 0 -137 38 -237 122 -327
94 -99 244 -150 412 -140 243 14 395 135 431 345 l7 42 -140 0 c-137 0 -141
-1 -148 -22 -22 -74 -91 -118 -181 -118 -138 1 -222 96 -211 240 9 119 92 199
208 200 80 0 138 -31 170 -92 l25 -48 139 0 138 0 -6 38 c-44 256 -294 397
-596 337z"/>
<path d="M726 3501 c-3 -4 -44 -116 -92 -247 -102 -284 -210 -582 -219 -606
-7 -17 4 -18 143 -18 l151 0 17 55 18 55 201 0 202 0 14 -52 14 -53 152 -3
153 -3 -36 98 c-28 77 -198 546 -268 743 l-13 35 -216 3 c-118 1 -218 -2 -221
-7z m305 -406 c25 -77 44 -143 42 -147 -2 -5 -60 -8 -128 -8 -68 0 -126 3
-128 8 -5 7 73 258 87 281 5 7 23 11 44 9 l37 -3 46 -140z"/>
<path d="M925 3188 c-24 -70 -63 -203 -61 -205 2 -2 39 -3 83 -1 l79 3 -34
108 c-22 71 -39 107 -48 107 -8 0 -17 -6 -19 -12z"/>
<path d="M1795 2341 c-82 -24 -120 -45 -181 -103 -141 -133 -162 -380 -48
-553 78 -118 207 -175 392 -175 252 0 420 132 451 355 26 178 -49 352 -183
430 -111 64 -300 84 -431 46z m240 -220 c78 -35 121 -112 113 -205 -6 -70 -34
-123 -81 -154 -34 -23 -51 -27 -112 -27 -61 0 -78 4 -112 27 -133 88 -104 323
45 368 46 14 105 10 147 -9z"/>
<path d="M1875 2081 c-44 -27 -62 -51 -75 -100 -31 -116 39 -211 155 -211 52
0 89 16 125 55 21 22 25 38 28 98 4 83 -14 123 -70 157 -43 26 -122 27 -163 1z"/>
<path d="M590 2225 l0 -105 150 0 150 0 0 -295 0 -295 130 0 130 0 0 295 0
295 150 0 150 0 0 105 0 105 -430 0 -430 0 0 -105z"/>
<path d="M1500 1261 c-5 -11 -10 -48 -10 -83 0 -91 34 -133 74 -92 20 19 23
163 4 182 -18 18 -56 14 -68 -7z"/>
<path d="M1902 1278 c-19 -19 -14 -46 13 -64 33 -21 55 -12 55 24 0 31 -16 52
-40 52 -9 0 -21 -5 -28 -12z"/>
<path d="M1896 1161 c-21 -23 -20 -54 2 -74 27 -25 60 -21 74 7 14 32 6 51
-30 70 -27 14 -31 14 -46 -3z"/>
<path d="M3542 3395 c52 -76 87 -173 88 -242 0 -23 -1 -23 -145 -23 -117 0
-145 -3 -145 -14 0 -22 24 -26 165 -26 158 0 171 6 160 74 -16 96 -51 164
-125 246 l-32 35 34 -50z"/>
<path d="M4543 3420 c20 -31 47 -133 47 -177 l0 -33 -147 0 c-140 0 -146 -1
-130 -17 26 -27 256 -32 294 -8 23 16 25 21 19 68 -9 66 -41 139 -73 169 l-26
23 16 -25z"/>
<path d="M4053 3289 c-35 -10 -56 -39 -47 -63 7 -19 37 -31 42 -16 13 39 85
56 171 40 69 -13 67 -13 47 9 -32 35 -141 51 -213 30z"/>
<path d="M3052 3249 c-62 -31 -95 -85 -100 -164 -5 -77 20 -141 69 -176 l34
-24 -27 33 c-66 80 -37 241 52 287 46 24 109 29 158 12 l43 -15 -18 20 c-44
50 -139 62 -211 27z"/>
<path d="M3790 3031 c61 -51 133 -73 345 -105 55 -8 111 -18 124 -22 18 -5 23
-4 19 7 -8 25 -50 37 -214 63 -88 14 -183 34 -210 44 -91 36 -92 36 -64 13z"/>
<path d="M4596 2995 c8 -20 14 -67 14 -114 0 -102 -32 -170 -104 -218 -82 -56
-161 -75 -332 -81 -177 -5 -286 12 -373 58 -43 24 -50 25 -35 9 62 -68 168
-100 359 -106 237 -8 378 28 459 118 53 58 68 99 68 190 0 65 -4 84 -27 128
-32 58 -51 69 -29 16z"/>
<path d="M3621 2923 c-7 -32 -27 -84 -44 -116 -84 -160 -242 -235 -471 -224
-121 5 -194 25 -281 77 l-50 30 40 -36 c85 -76 215 -116 367 -113 120 2 192
19 274 64 77 43 138 109 173 188 42 94 47 187 11 187 -4 0 -13 -26 -19 -57z"/>
<path d="M3984 2881 c11 -11 23 -21 28 -21 14 0 -1 19 -25 31 -22 12 -22 12
-3 -10z"/>
<path d="M3926 2290 c-4 -23 -6 -150 -6 -281 l1 -239 25 0 25 0 -3 265 c-3
227 -5 267 -19 280 -15 15 -17 13 -23 -25z"/>
<path d="M3484 2218 c63 -86 80 -147 80 -283 0 -100 -3 -129 -22 -175 -45
-112 -130 -194 -250 -241 -45 -18 -83 -23 -180 -27 -111 -4 -131 -2 -206 22
-47 15 -103 41 -132 62 l-49 35 50 -46 c85 -81 201 -120 355 -118 293 2 480
178 480 451 0 132 -38 236 -117 320 l-44 47 35 -47z"/>
<path d="M3010 2098 c-77 -39 -117 -133 -91 -218 12 -41 46 -90 63 -90 7 0 6
5 -1 14 -36 44 -35 143 3 198 48 72 163 96 229 47 l32 -23 -16 24 c-21 33 -94
70 -139 70 -20 0 -56 -10 -80 -22z"/>
<path d="M4360 1630 l0 -120 -362 0 c-360 0 -361 0 -343 -20 17 -19 31 -20
365 -20 323 0 348 1 363 18 14 15 17 40 17 123 0 92 -2 107 -20 122 -20 17
-20 16 -20 -103z"/>
<path d="M2479 1258 c-13 -30 -4 -81 14 -75 7 2 11 11 9 20 -3 19 28 58 40 51
4 -3 8 0 8 6 0 7 -8 9 -21 5 -13 -5 -25 -2 -30 6 -5 9 -11 6 -20 -13z"/>
<path d="M3120 1254 c-14 -7 -20 -14 -15 -14 6 0 3 -5 -5 -10 -13 -9 -13 -10
0 -10 8 1 23 12 33 25 10 14 17 25 15 24 -2 -1 -14 -7 -28 -15z"/>
<path d="M3292 1247 c-18 -19 -22 -35 -22 -84 0 -36 5 -65 13 -71 9 -8 12 6
12 62 0 54 5 77 16 89 9 9 19 13 23 10 3 -4 6 -1 6 5 0 20 -25 14 -48 -11z"/>
<path d="M3522 1263 c-7 -2 -17 -13 -22 -24 -8 -15 -7 -19 4 -19 10 0 13 6 9
17 -4 10 -2 14 4 10 6 -4 13 0 17 8 3 8 4 15 3 14 -1 0 -8 -3 -15 -6z"/>
<path d="M2793 1232 c-8 -20 -9 -41 -4 -55 8 -20 9 -19 16 15 10 54 2 81 -12
40z"/>
<path d="M2987 1224 c-14 -28 -15 -33 -1 -50 10 -13 14 -14 11 -4 -2 8 1 22 8
30 7 9 10 23 5 35 -6 18 -8 17 -23 -11z"/>
<path d="M2611 1201 c-1 -46 -18 -118 -33 -138 -5 -6 -5 -14 2 -18 5 -3 10 -2
10 3 0 4 10 19 22 31 23 26 28 95 9 141 -9 23 -10 21 -10 -19z"/>
<path d="M3400 1175 c0 -66 -22 -125 -50 -132 -11 -3 -20 -10 -20 -15 0 -16
44 2 68 28 19 22 22 35 20 95 -2 84 -18 104 -18 24z"/>
<path d="M3077 1173 c-12 -12 -7 -59 8 -79 14 -18 14 -18 15 8 0 28 23 58 43
58 7 0 6 4 -3 10 -17 11 -54 13 -63 3z"/>
<path d="M3471 1171 c-9 -6 -11 -18 -6 -40 8 -36 25 -51 25 -22 0 11 11 28 25
39 21 17 22 21 9 26 -21 8 -36 7 -53 -3z"/>
<path d="M3201 1112 c3 -35 1 -48 -8 -45 -6 3 -16 -5 -22 -16 -8 -13 -17 -18
-29 -14 -13 4 -14 3 -6 -6 8 -8 18 -9 37 -2 38 15 58 51 51 90 -11 53 -26 49
-23 -7z"/>
<path d="M3600 1130 c0 -14 -7 -38 -15 -54 -8 -15 -12 -33 -8 -39 4 -7 -7 -8
-33 -4 -27 4 -34 3 -24 -3 30 -19 58 -11 79 24 23 36 26 63 11 86 -8 12 -10
10 -10 -10z"/>
<path d="M2520 1128 c0 -11 28 -10 35 1 3 6 -4 9 -15 8 -11 -1 -20 -5 -20 -9z"/>
<path d="M2797 1103 c-6 -33 7 -53 25 -35 8 8 8 15 -3 28 -8 9 -12 19 -11 21
2 3 2 7 -1 9 -2 3 -7 -8 -10 -23z"/>
<path d="M2995 1094 c-5 -16 -7 -33 -6 -37 1 -5 -3 -6 -8 -3 -5 3 -14 -1 -21
-9 -7 -8 -16 -13 -20 -10 -5 3 -11 1 -15 -5 -10 -16 38 -12 63 6 33 23 44 48
28 69 -12 17 -14 16 -21 -11z"/>
<path d="M2766 1049 c-10 -12 -16 -23 -14 -25 9 -8 48 9 48 22 0 22 -16 24
-34 3z"/>
<path d="M2725 1030 c-3 -5 -1 -10 4 -10 6 0 11 5 11 10 0 6 -2 10 -4 10 -3 0
-8 -4 -11 -10z"/>
</g>
</svg>
